<svg xmlns="http://www.w3.org/2000/svg" viewBox="0 0 272.71 48.56"><defs><style>.cls-1{fill:#701633;}.cls-2{fill:#2292a4;}</style></defs><g id="Réteg_2" data-name="Réteg 2"><g id="Réteg_1" data-name="Réteg 1"><path class="cls-1" d="M82.31,38a15.36,15.36,0,0,1-7.41-1.72,12.55,12.55,0,0,1-5-4.8,14.07,14.07,0,0,1-1.78-7.17,14.35,14.35,0,0,1,1-5.52,13,13,0,0,1,7.3-7.22,15,15,0,0,1,5.54-1,14,14,0,0,1,5.83,1.15A11.46,11.46,0,0,1,92.11,15a12.24,12.24,0,0,1,2.38,4.88,15.28,15.28,0,0,1,.17,6.06H74.41a6.33,6.33,0,0,0,1,3.57,6.67,6.67,0,0,0,2.85,2.39,10.19,10.19,0,0,0,4.36.87,13.87,13.87,0,0,0,4.28-.65,13.43,13.43,0,0,0,3.8-1.91L93,34.79a11.45,11.45,0,0,1-3,1.71,20.56,20.56,0,0,1-3.82,1.11A20.09,20.09,0,0,1,82.31,38ZM74.8,21.17H88.21a5.47,5.47,0,0,0-1.73-4.1,6.67,6.67,0,0,0-4.61-1.49A7.72,7.72,0,0,0,77,17.07,5.73,5.73,0,0,0,74.8,21.17Z"/><path class="cls-1" d="M97.49,38V12.11h6.65v3.45a9.82,9.82,0,0,1,2.33-2.39,9.72,9.72,0,0,1,2.82-1.38,10.49,10.49,0,0,1,3-.45,9.43,9.43,0,0,1,5.16,1.34,7.17,7.17,0,0,1,2.92,3.52,9.9,9.9,0,0,1,4.35-3.78A13.42,13.42,0,0,1,130,11.34a10.4,10.4,0,0,1,5.8,1.42,8.09,8.09,0,0,1,3.08,3.65,12,12,0,0,1,.93,4.66V38h-6.66V23a5.94,5.94,0,0,0-1.34-4.06,5,5,0,0,0-4-1.54,6.17,6.17,0,0,0-3,.74,5.49,5.49,0,0,0-2.1,2A5.57,5.57,0,0,0,122,23V38h-6.65V23A5.94,5.94,0,0,0,114,18.93a5,5,0,0,0-4-1.54,6.17,6.17,0,0,0-3,.74,5.39,5.39,0,0,0-2.09,2,5.49,5.49,0,0,0-.77,2.9V38Z"/><path class="cls-1" d="M143.15,38V12.11h6.76V31.84h9.44V38Z"/><path class="cls-1" d="M175.16,38a15.29,15.29,0,0,1-7.4-1.72,12.55,12.55,0,0,1-5-4.8A14.08,14.08,0,0,1,161,24.31a14.36,14.36,0,0,1,1-5.52,13,13,0,0,1,7.3-7.22,14.91,14.91,0,0,1,5.54-1,14,14,0,0,1,5.82,1.15A11.46,11.46,0,0,1,185,15a12.11,12.11,0,0,1,2.38,4.88,15.1,15.1,0,0,1,.17,6.06H167.27a6.18,6.18,0,0,0,1,3.57,6.56,6.56,0,0,0,2.85,2.39,10.12,10.12,0,0,0,4.36.87,13.81,13.81,0,0,0,4.27-.65,13.62,13.62,0,0,0,3.81-1.91l2.33,4.63a11.78,11.78,0,0,1-3,1.71A20.56,20.56,0,0,1,179,37.61,20.19,20.19,0,0,1,175.16,38Zm-7.5-16.83h13.41a5.48,5.48,0,0,0-1.74-4.1,6.66,6.66,0,0,0-4.61-1.49,7.69,7.69,0,0,0-4.86,1.49A5.7,5.7,0,0,0,167.66,21.17Z"/><path class="cls-1" d="M191.07,38V12.11h6.75V24.67L207.9,12.11h8.34l-9.3,11.53L218,38h-8.58l-6.92-9.23-4.69,5.48V38Z"/><path class="cls-2" d="M272.71,20.48a8.37,8.37,0,0,0-8.37-8.37H247.92V38h6.76V28.85h4l6,9.15h8l-6.43-9.38A8.38,8.38,0,0,0,272.71,20.48Zm-18-2.72h8.51a2.73,2.73,0,1,1,0,5.45h-8.51Z"/><path class="cls-2" d="M245.59,34.93l-3.23-3.23a15,15,0,0,0,1.18-2.2,13.68,13.68,0,0,0-.78-12.09,13.81,13.81,0,0,0-5-5,14.27,14.27,0,0,0-7.31-1.86,14.45,14.45,0,0,0-5.7,1.1,13.93,13.93,0,0,0-4.49,3,13.47,13.47,0,0,0-3,4.39,13.69,13.69,0,0,0,.77,12.08,13.86,13.86,0,0,0,5,5,15.31,15.31,0,0,0,13,.77,14.62,14.62,0,0,0,1.58-.8l3.36,3.36ZM230.4,32.2a7.66,7.66,0,0,1-3.88-1,7,7,0,0,1-2.7-2.74,8.62,8.62,0,0,1-1-4.21,8.68,8.68,0,0,1,1-4.22,6.76,6.76,0,0,1,2.69-2.74,8.44,8.44,0,0,1,7.82,0A6.7,6.7,0,0,1,237,20.06a8.68,8.68,0,0,1,1,4.22,9.74,9.74,0,0,1-.36,2.67l-2.76-2.75-4.53,4.53,3,3A8.25,8.25,0,0,1,230.4,32.2Z"/><rect class="cls-1" x="24.29" y="42.5" width="6.07" height="6.06" rx="1.3"/><rect class="cls-1" x="36.43" y="18.23" width="6.07" height="6.06" rx="1.3"/><path class="cls-1" d="M35.13,24.29H31.66a1.3,1.3,0,0,1-1.3-1.3V19.37a1.17,1.17,0,0,1,1.17-1.17h0l.13,0h3.47a1.31,1.31,0,0,0,1.3-1.31h0V13.45h0a1.31,1.31,0,0,1,1.3-1.31H41.2a1.3,1.3,0,0,0,1.3-1.3V7.37a1.31,1.31,0,0,1,1.31-1.3h3.46a1.31,1.31,0,0,0,1.31-1.3V1.32A1.31,1.31,0,0,0,47.27,0H37.73a1.3,1.3,0,0,0-1.3,1.3V4.92a1.17,1.17,0,0,1-1.17,1.17h0l-.13,0H31.66a1.3,1.3,0,0,0-1.3,1.3v3.47h0a1.3,1.3,0,0,1-1.3,1.3H25.59a1.3,1.3,0,0,1-1.3-1.3h0V7.37A1.3,1.3,0,0,0,23,6.07H19.52l-.14,0h0a1.17,1.17,0,0,1-1.16-1.17V1.3A1.31,1.31,0,0,0,16.91,0H7.37a1.3,1.3,0,0,0-1.3,1.3V4.92A1.17,1.17,0,0,1,4.9,6.09h0l-.13,0H1.3A1.3,1.3,0,0,0,0,7.37V23a1.3,1.3,0,0,0,1.3,1.3H4.77l.13,0h0a1.17,1.17,0,0,1,1.17,1.17v3.62a1.3,1.3,0,0,0,1.3,1.3h3.47a1.3,1.3,0,0,1,1.3,1.3v3.46h0a1.31,1.31,0,0,0,1.31,1.3h3.46a1.31,1.31,0,0,1,1.31,1.3V41.2a1.3,1.3,0,0,0,1.3,1.3H23a1.3,1.3,0,0,0,1.3-1.3V37.73a1.3,1.3,0,0,1,1.3-1.3h3.47a1.3,1.3,0,0,0,1.3-1.3V31.65a1.3,1.3,0,0,1,1.3-1.3h3.47A1.31,1.31,0,0,0,36.43,29V25.59A1.3,1.3,0,0,0,35.13,24.29Zm-10.84,1.3V29.2a1.17,1.17,0,0,1-1.17,1.17H19.38a1.16,1.16,0,0,1-1.16-1.17V19.52a1.31,1.31,0,0,0-1.31-1.3H13.45a1.31,1.31,0,0,1-1.31-1.31h0V13.45h0a1.31,1.31,0,0,1,1.31-1.31h3.46a1.31,1.31,0,0,1,1.31,1.31h0V16.9h0a1.31,1.31,0,0,0,1.3,1.31H23l.13,0h0a1.18,1.18,0,0,1,1.17,1.17Z"/><rect class="cls-1" x="42.5" y="24.3" width="6.07" height="6.06" rx="1.3"/><rect class="cls-1" x="42.5" y="36.43" width="6.07" height="6.06" rx="1.3"/><rect class="cls-1" x="30.36" y="36.45" width="6.07" height="6.06" rx="1.3"/><path class="cls-1" d="M53.35,6.07H49.88a1.3,1.3,0,0,0-1.3,1.3v3.49a1.31,1.31,0,0,1-1.31,1.3H43.81a1.31,1.31,0,0,0-1.31,1.3v3.45a1.31,1.31,0,0,0,1.31,1.31h3.46a1.31,1.31,0,0,1,1.31,1.3V23a1.3,1.3,0,0,0,1.3,1.3h3.47a1.31,1.31,0,0,0,1.3-1.3V7.37A1.3,1.3,0,0,0,53.35,6.07Z"/><polygon class="cls-1" points="171.85 8.89 175.16 4.03 181.81 4.03 177.89 8.89 171.85 8.89"/></g></g></svg>