<?xml version="1.0" encoding="UTF-8"?>
<svg id="Layer_2" data-name="Layer 2" xmlns="http://www.w3.org/2000/svg" xmlns:xlink="http://www.w3.org/1999/xlink" viewBox="0 0 54.65 48.56">
  <defs>
    <style>
      .cls-1 {
        fill: url(#linear-gradient);
      }

      .cls-1, .cls-2 {
        stroke-width: 0px;
      }

      .cls-2 {
        fill: #701633;
      }
    </style>
    <linearGradient id="linear-gradient" x1="0" y1="24.28" x2="54.65" y2="24.28" gradientUnits="userSpaceOnUse">
      <stop offset="0" stop-color="#2292a4"/>
      <stop offset="1" stop-color="#701633"/>
    </linearGradient>
  </defs>
  <g id="Layer_1-2" data-name="Layer 1">
    <path class="cls-1" d="M25.59,42.5h3.47c.72,0,1.3.58,1.3,1.3v3.46c0,.72-.58,1.3-1.3,1.3h-3.47c-.72,0-1.3-.58-1.3-1.3v-3.46c0-.72.58-1.3,1.3-1.3ZM37.73,18.23h3.47c.72,0,1.3.58,1.3,1.3v3.46c0,.72-.58,1.3-1.3,1.3h-3.47c-.72,0-1.3-.58-1.3-1.3v-3.46c0-.72.58-1.3,1.3-1.3ZM35.13,24.29h-3.47c-.72,0-1.3-.58-1.3-1.3v-3.62c0-.65.52-1.17,1.17-1.17h3.6c.72,0,1.3-.59,1.3-1.31h0v-3.44h0c0-.72.58-1.3,1.3-1.31h3.47c.72,0,1.3-.58,1.3-1.3v-3.47c0-.72.59-1.3,1.31-1.3h3.46c.72,0,1.3-.58,1.31-1.3V1.32c0-.72-.58-1.31-1.3-1.32,0,0,0,0-.01,0h-9.54c-.72,0-1.3.58-1.3,1.3v3.62c0,.65-.52,1.17-1.17,1.17h-3.6c-.72,0-1.3.58-1.3,1.3v3.47h0c0,.72-.58,1.3-1.3,1.3h-3.47c-.72,0-1.3-.58-1.3-1.3h0v-3.49c0-.71-.58-1.29-1.29-1.3h-3.62c-.64,0-1.16-.53-1.16-1.17V1.3C18.21.58,17.63,0,16.91,0H7.37C6.65,0,6.07.58,6.07,1.3c0,0,0,0,0,0v3.62c0,.65-.52,1.17-1.17,1.17H1.3c-.71,0-1.29.57-1.3,1.28v15.63c0,.72.58,1.3,1.3,1.3h3.6c.65,0,1.17.52,1.17,1.17h0v3.62c0,.72.58,1.3,1.3,1.3h3.47c.72,0,1.3.58,1.3,1.3v3.46h0c0,.72.59,1.3,1.31,1.3h3.46c.72,0,1.3.58,1.31,1.3v3.45c0,.72.58,1.3,1.3,1.3h3.48c.72,0,1.3-.58,1.3-1.3v-3.47c0-.72.58-1.3,1.3-1.3h3.47c.72,0,1.3-.58,1.3-1.3v-3.48c0-.72.58-1.3,1.3-1.3h3.47c.72-.01,1.3-.61,1.29-1.33,0,0,0-.01,0-.02v-3.41c0-.72-.58-1.3-1.3-1.3ZM24.29,25.59v3.61c0,.65-.52,1.17-1.17,1.17h-3.74c-.64,0-1.16-.52-1.16-1.16,0,0,0,0,0-.01v-9.68c0-.72-.59-1.3-1.31-1.3h-3.46c-.72,0-1.31-.59-1.31-1.31h0v-3.46h0c0-.72.59-1.31,1.31-1.31h3.46c.72,0,1.31.59,1.31,1.31h0v3.45h0c0,.72.58,1.3,1.3,1.31h3.61c.64,0,1.16.53,1.17,1.17v6.21ZM53.35,6.07h-3.47c-.72,0-1.3.58-1.3,1.3v3.49c0,.72-.59,1.3-1.31,1.3h-3.46c-.72,0-1.3.58-1.31,1.3v3.45c0,.72.59,1.31,1.31,1.31h3.46c.72,0,1.3.58,1.31,1.3v3.48c0,.72.58,1.3,1.3,1.3h3.47c.72,0,1.29-.58,1.3-1.3V7.37c0-.72-.58-1.3-1.3-1.3h0Z"/>
    <rect class="cls-2" x="37.09" y="36.45" width="16.89" height="6.06" rx="1.3" ry="1.3"/>
    <rect class="cls-2" x="42.5" y="31.04" width="6.06" height="16.89" rx="1.3" ry="1.3"/>
  </g>
</svg>