<svg xmlns="http://www.w3.org/2000/svg" viewBox="0 0 133.48 118.62"><defs><style>.cls-1{fill:#701633;}</style></defs><g id="Réteg_2" data-name="Réteg 2"><g id="Réteg_1" data-name="Réteg 1"><rect class="cls-1" x="59.33" y="103.82" width="14.83" height="14.8" rx="3.18"/><rect class="cls-1" x="88.99" y="44.53" width="14.83" height="14.8" rx="3.18"/><path class="cls-1" d="M85.81,59.33H77.34a3.18,3.18,0,0,1-3.18-3.18V47.32A2.86,2.86,0,0,1,77,44.46h0l.33,0h8.47A3.18,3.18,0,0,0,89,41.31V32.84h0a3.18,3.18,0,0,1,3.18-3.18h8.47a3.18,3.18,0,0,0,3.18-3.18V18A3.19,3.19,0,0,1,107,14.83h8.47a3.18,3.18,0,0,0,3.18-3.18V3.21A3.18,3.18,0,0,0,115.47,0H101c-.11,0-.22,0-.33,0H92.17A3.18,3.18,0,0,0,89,3.18V12a2.85,2.85,0,0,1-2.85,2.85h0l-.33,0H77.34A3.18,3.18,0,0,0,74.16,18v8.47h0A3.18,3.18,0,0,1,71,29.66H62.51a3.18,3.18,0,0,1-3.18-3.18h0V18a3.19,3.19,0,0,0-3.18-3.18H47.68c-.12,0-.22,0-.33,0h0A2.85,2.85,0,0,1,44.49,12V3.18A3.18,3.18,0,0,0,41.31,0H32.84c-.11,0-.21,0-.32,0H26.81c-.11,0-.22,0-.33,0H18a3.18,3.18,0,0,0-3.18,3.18V12A2.85,2.85,0,0,1,12,14.86h0l-.33,0H3.18A3.18,3.18,0,0,0,0,18V56.15a3.18,3.18,0,0,0,3.18,3.18h8.47c.11,0,.22,0,.33,0h0a2.86,2.86,0,0,1,2.85,2.86V71A3.19,3.19,0,0,0,18,74.16h8.47a3.18,3.18,0,0,1,3.18,3.18v8.47A3.18,3.18,0,0,0,32.84,89h8.47a3.18,3.18,0,0,1,3.18,3.18v8.47a3.18,3.18,0,0,0,3.19,3.18h8.47a3.18,3.18,0,0,0,3.18-3.18V92.17A3.18,3.18,0,0,1,62.51,89H71a3.18,3.18,0,0,0,3.18-3.18v-8.5a3.18,3.18,0,0,1,3.18-3.18h8.47A3.18,3.18,0,0,0,89,70.94V62.51A3.18,3.18,0,0,0,85.81,59.33ZM59.33,62.51v8.83a2.86,2.86,0,0,1-2.86,2.85h0c-.11,0-.21,0-.32,0H47.68c-.12,0-.22,0-.33,0h0a2.86,2.86,0,0,1-2.86-2.85V47.68a3.18,3.18,0,0,0-3.18-3.19H32.84a3.18,3.18,0,0,1-3.18-3.18V32.84h0a3.19,3.19,0,0,1,3.18-3.18h8.47a3.18,3.18,0,0,1,3.18,3.18h0v8.47a3.18,3.18,0,0,0,3.19,3.18h8.47c.11,0,.21,0,.32,0h0a2.86,2.86,0,0,1,2.86,2.86Z"/><rect class="cls-1" x="103.82" y="59.36" width="14.83" height="14.8" rx="3.18"/><rect class="cls-1" x="103.82" y="88.99" width="14.83" height="14.8" rx="3.18"/><rect class="cls-1" x="74.16" y="89.02" width="14.83" height="14.8" rx="3.18"/><path class="cls-1" d="M130.3,14.83h-8.47A3.19,3.19,0,0,0,118.65,18v8.51a3.18,3.18,0,0,1-3.18,3.18H107a3.18,3.18,0,0,0-3.18,3.18v8.43A3.18,3.18,0,0,0,107,44.49h8.47a3.18,3.18,0,0,1,3.18,3.19v8.47a3.19,3.19,0,0,0,3.18,3.18h8.47a3.18,3.18,0,0,0,3.18-3.18V18A3.18,3.18,0,0,0,130.3,14.83Z"/></g></g></svg>